<mxfile host="app.diagrams.net" modified="2023-03-27T07:21:10.166Z" agent="5.0 (Macintosh; Intel Mac OS X 10_15_7) AppleWebKit/537.36 (KHTML, like Gecko) Chrome/111.0.0.0 Safari/537.36" version="20.6.2" etag="1AgFSAgMKDqd405bzQHR" type="github">
  <diagram id="ZhCKl8RI5OyfQSzXzDsD" name="第 1 页">
    <mxGraphModel dx="1554" dy="813" grid="1" gridSize="10" guides="1" tooltips="1" connect="1" arrows="1" fold="1" page="1" pageScale="1" pageWidth="827" pageHeight="1169" math="0" shadow="0">
      <root>
        <mxCell id="0" />
        <mxCell id="1" parent="0" />
        <mxCell id="ie1i5lzwZYB1EZFtNNzG-3" value="" style="edgeStyle=orthogonalEdgeStyle;rounded=0;orthogonalLoop=1;jettySize=auto;html=1;" edge="1" parent="1" source="ie1i5lzwZYB1EZFtNNzG-1" target="ie1i5lzwZYB1EZFtNNzG-2">
          <mxGeometry relative="1" as="geometry" />
        </mxCell>
        <mxCell id="ie1i5lzwZYB1EZFtNNzG-9" style="edgeStyle=orthogonalEdgeStyle;rounded=0;orthogonalLoop=1;jettySize=auto;html=1;exitX=0.5;exitY=1;exitDx=0;exitDy=0;" edge="1" parent="1" source="ie1i5lzwZYB1EZFtNNzG-1" target="ie1i5lzwZYB1EZFtNNzG-7">
          <mxGeometry relative="1" as="geometry" />
        </mxCell>
        <mxCell id="ie1i5lzwZYB1EZFtNNzG-1" value="" style="ellipse;html=1;shape=endState;fillColor=#000000;strokeColor=#ff0000;" vertex="1" parent="1">
          <mxGeometry x="320" y="370" width="70" height="40" as="geometry" />
        </mxCell>
        <mxCell id="ie1i5lzwZYB1EZFtNNzG-2" value="" style="rhombus;whiteSpace=wrap;html=1;fillColor=#000000;strokeColor=#ff0000;" vertex="1" parent="1">
          <mxGeometry x="465" y="355" width="80" height="80" as="geometry" />
        </mxCell>
        <mxCell id="ie1i5lzwZYB1EZFtNNzG-5" style="edgeStyle=orthogonalEdgeStyle;rounded=0;orthogonalLoop=1;jettySize=auto;html=1;exitX=0.5;exitY=1;exitDx=0;exitDy=0;exitPerimeter=0;entryX=0.5;entryY=0;entryDx=0;entryDy=0;" edge="1" parent="1" source="ie1i5lzwZYB1EZFtNNzG-4" target="ie1i5lzwZYB1EZFtNNzG-1">
          <mxGeometry relative="1" as="geometry" />
        </mxCell>
        <mxCell id="ie1i5lzwZYB1EZFtNNzG-4" value="" style="shape=cylinder3;whiteSpace=wrap;html=1;boundedLbl=1;backgroundOutline=1;size=15;" vertex="1" parent="1">
          <mxGeometry x="320" y="170" width="60" height="80" as="geometry" />
        </mxCell>
        <mxCell id="ie1i5lzwZYB1EZFtNNzG-6" value="Actor" style="shape=umlActor;verticalLabelPosition=bottom;verticalAlign=top;html=1;outlineConnect=0;" vertex="1" parent="1">
          <mxGeometry x="180" y="400" width="30" height="60" as="geometry" />
        </mxCell>
        <mxCell id="ie1i5lzwZYB1EZFtNNzG-7" value="Entity" style="swimlane;childLayout=stackLayout;horizontal=1;startSize=30;horizontalStack=0;rounded=1;fontSize=14;fontStyle=0;strokeWidth=2;resizeParent=0;resizeLast=1;shadow=0;dashed=0;align=center;" vertex="1" parent="1">
          <mxGeometry x="290" y="580" width="160" height="120" as="geometry" />
        </mxCell>
        <mxCell id="ie1i5lzwZYB1EZFtNNzG-8" value="+Attribute1&#xa;+Attribute2&#xa;+Attribute3" style="align=left;strokeColor=none;fillColor=none;spacingLeft=4;fontSize=12;verticalAlign=top;resizable=0;rotatable=0;part=1;" vertex="1" parent="ie1i5lzwZYB1EZFtNNzG-7">
          <mxGeometry y="30" width="160" height="90" as="geometry" />
        </mxCell>
      </root>
    </mxGraphModel>
  </diagram>
</mxfile>
